<svg width="64" height="64" viewBox="0 0 64 64" fill="none" xmlns="http://www.w3.org/2000/svg">
<path fill-rule="evenodd" clip-rule="evenodd" d="M22.2 14H28C28.5523 14 29 14.4477 29 15C29 15.5523 28.5523 16 28 16L22 16V21H27C27.5523 21 28 21.4477 28 22C28 22.5523 27.5523 23 27 23H22V28H27C27.5523 28 28 28.4477 28 29C28 29.5523 27.5523 30 27 30H22V31C22 36.5228 26.4772 41 32 41C37.5228 41 42 36.5228 42 31V30H37C36.4477 30 36 29.5523 36 29C36 28.4477 36.4477 28 37 28H42V23H37C36.4477 23 36 22.5523 36 22C36 21.4477 36.4477 21 37 21H42V16H36C35.4477 16 35 15.5523 35 15C35 14.4477 35.4477 14 36 14H41.8C40.8734 9.43552 36.8379 6 32 6C27.1621 6 23.1266 9.43552 22.2 14Z" fill="#6f8d8f"/>
<path fill-rule="evenodd" clip-rule="evenodd" d="M41.1679 12C41.4454 12.635 41.6588 13.3044 41.8 14H36C35.4477 14 35 14.4477 35 15C35 15.5523 35.4477 16 36 16H42V21H37C36.4477 21 36 21.4477 36 22C36 22.5523 36.4477 23 37 23H42V28H37C36.4477 28 36 28.4477 36 29C36 29.5523 36.4477 30 37 30H42V31C42 31.3375 41.9833 31.6711 41.9506 32C41.4489 37.0533 37.1853 41 32 41C26.8147 41 22.5511 37.0533 22.0494 32C22.0167 31.6711 22 31.3375 22 31V30H27C27.5523 30 28 29.5523 28 29C28 28.4477 27.5523 28 27 28H22V23H27C27.5523 23 28 22.5523 28 22C28 21.4477 27.5523 21 27 21H22V16L28 16C28.5523 16 29 15.5523 29 15C29 14.4477 28.5523 14 28 14H22.2C22.3412 13.3044 22.5546 12.635 22.8321 12C24.3752 8.46819 27.8994 6 32 6C36.1006 6 39.6248 8.46819 41.1679 12ZM38.9304 12C37.5468 9.60871 34.96 8 32 8C29.04 8 26.4532 9.6087 25.0696 12H28C29.6569 12 31 13.3431 31 15C31 16.6569 29.6569 18 28 18L24 18V19H27C28.6569 19 30 20.3431 30 22C30 23.6569 28.6569 25 27 25H24V26H27C28.6569 26 30 27.3431 30 29C30 30.6569 28.6569 32 27 32H24.0619C24.554 35.9463 27.9204 39 32 39C36.0796 39 39.446 35.9463 39.9381 32H37C35.3431 32 34 30.6569 34 29C34 27.3431 35.3431 26 37 26H40V25H37C35.3431 25 34 23.6569 34 22C34 20.3431 35.3431 19 37 19H40V18H36C34.3431 18 33 16.6569 33 15C33 13.3431 34.3431 12 36 12H38.9304Z" fill="#6f8d8f"/>
<path fill-rule="evenodd" clip-rule="evenodd" d="M16 30C16.5523 30 17 30.4477 17 31C17 39.2843 23.7157 46 32 46C40.2843 46 47 39.2843 47 31C47 30.4477 47.4477 30 48 30C48.5523 30 49 30.4477 49 31C49 40.3888 41.3888 48 32 48C22.6112 48 15 40.3888 15 31C15 30.4477 15.4477 30 16 30Z" fill="#6f8d8f"/>
<path fill-rule="evenodd" clip-rule="evenodd" d="M31 58.5V47.5H33V58.5H31Z" fill="#6f8d8f"/>
<path fill-rule="evenodd" clip-rule="evenodd" d="M25.5 58C25.5 57.4477 25.9477 57 26.5 57H37.5C38.0523 57 38.5 57.4477 38.5 58C38.5 58.5523 38.0523 59 37.5 59H26.5C25.9477 59 25.5 58.5523 25.5 58Z" fill="#6f8d8f"/>
</svg>
